# xmcd CD database file
#
# Track frame offsets:
#	150
#	16898
#	41269
#	57552
#	73639
#	98469
#	116379
#	139825
#	150584
#
# Disc length: 2211 seconds
#
# Revision: 0
# Processed by: cddbd v1.5.1PL0 Copyright (c) Steve Scherf et al.
# Submitted via: CDex 1.51
#
DISCID=6a08a109
DTITLE=Politmia - compilation 4
DYEAR=1900
DGENRE=Pop
TTITLE0=つなぐ空-eufonius ver.-/eufnius
TTITLE1=アルタルフ/eufonius
TTITLE2=僕らの欠片/空色絵本
TTITLE3=虹のはし/空色絵本
TTITLE4=soshigaya heap up/Setagaya calling
TTITLE5=蒼穹月佳/Maple Leaf
TTITLE6=resistenza/refio
TTITLE7=stille ziel/refio
TTITLE8=ebb tide/yosihisa nagao
EXTD=
EXTT0=
EXTT1=
EXTT2=
EXTT3=
EXTT4=
EXTT5=
EXTT6=
EXTT7=
EXTT8=
PLAYORDER=
